<?xml version="1.0" encoding="utf-8"?>
<!-- Generator: Adobe Illustrator 25.4.1, SVG Export Plug-In . SVG Version: 6.00 Build 0)  -->
<svg version="1.1" id="Layer_1" xmlns="http://www.w3.org/2000/svg" xmlns:xlink="http://www.w3.org/1999/xlink" x="0px" y="0px"
	 viewBox="0 0 32 32" style="enable-background:new 0 0 32 32;" xml:space="preserve">
<style type="text/css">
	.st0{fill:none;stroke:#000000;stroke-width:0.5;}
	.st1{fill:#FFFFFF;stroke:#000000;stroke-width:0.5;stroke-miterlimit:3.9999;}
</style>
<g>
	<g>
		<g>
			<g>
				<defs>
					<rect id="SVGID_1_" width="32" height="32"/>
				</defs>
				<clipPath id="SVGID_00000142168462933142846130000017540665978558219454_">
					<use xlink:href="#SVGID_1_"  style="overflow:visible;"/>
				</clipPath>
			</g>
		</g>
	</g>
</g>
<path class="st0" d="M16,24L16,24c-4.4,0-8-3.6-8-8l0,0c0-4.4,3.6-8,8-8l0,0c4.4,0,8,3.6,8,8l0,0C24,20.4,20.4,24,16,24z"/>
<polygon class="st1" points="9.1,20 22.9,12 22.9,12 "/>
<polygon class="st1" points="10.4,21.8 23.8,14.1 23.8,14.1 "/>
<polygon class="st1" points="12.6,23.3 24,16.7 24,16.7 "/>
<polygon class="st1" points="16,24 23,20 23,20 "/>
<polygon class="st1" points="8.3,17.7 21.5,10.1 21.5,10.1 "/>
<polygon class="st1" points="8,14.9 18.9,8.6 18.9,8.6 "/>
<polygon class="st1" points="9,12 16,8 16,8 "/>
</svg>
